<svg width="94" height="92" viewBox="0 0 94 92" fill="none" xmlns="http://www.w3.org/2000/svg" xmlns:xlink="http://www.w3.org/1999/xlink">
<path d="M92.96,0L0.96,0L0.96,92L92.96,92L92.96,0Z" fill="#1DA1F2"/>
<path d="M36.293,69.365C57.991,69.365 69.859,51.389 69.859,35.799C69.859,35.288 69.859,34.78 69.824,34.274C72.133,32.604 74.126,30.536 75.71,28.168C73.557,29.122 71.273,29.747 68.934,30.024C71.397,28.549 73.24,26.231 74.121,23.499C71.805,24.873 69.271,25.841 66.63,26.362C64.851,24.471 62.498,23.218 59.936,22.799C57.374,22.379 54.745,22.816 52.456,24.041C50.167,25.266 48.345,27.211 47.273,29.576C46.201,31.94 45.938,34.593 46.525,37.122C41.835,36.886 37.247,35.668 33.058,33.544C28.869,31.421 25.174,28.44 22.212,24.796C20.703,27.393 20.241,30.467 20.92,33.393C21.598,36.319 23.367,38.876 25.864,40.544C23.987,40.488 22.151,39.982 20.51,39.067C20.51,39.116 20.51,39.166 20.51,39.217C20.511,41.941 21.454,44.58 23.179,46.688C24.904,48.796 27.305,50.242 29.974,50.781C28.238,51.255 26.415,51.324 24.648,50.984C25.402,53.328 26.869,55.378 28.845,56.847C30.822,58.316 33.207,59.13 35.669,59.176C31.492,62.459 26.331,64.242 21.018,64.236C20.08,64.235 19.142,64.178 18.21,64.066C23.605,67.528 29.882,69.365 36.293,69.356Z" fill="#FFFFFF"/>
</svg>
