<svg width="94" height="92" viewBox="0 0 94 92" fill="none" xmlns="http://www.w3.org/2000/svg" xmlns:xlink="http://www.w3.org/1999/xlink">
<path d="M87.882,0L6.038,0C3.233,0 0.96,2.273 0.96,5.078L0.96,86.922C0.96,89.727 3.233,92 6.038,92L87.882,92C90.687,92 92.96,89.727 92.96,86.922L92.96,5.078C92.96,2.273 90.687,0 87.882,0Z" fill="#3C5A99"/>
<path d="M64.438,92L64.438,56.374L76.396,56.374L78.189,42.489L64.438,42.489L64.438,33.623C64.438,29.604 65.555,26.864 71.333,26.864L78.685,26.864L78.685,14.454C75.127,14.076 71.55,13.893 67.972,13.906C57.372,13.906 50.116,20.376 50.116,32.258L50.116,42.5L38.109,42.5L38.109,56.385L50.102,56.385L50.102,92L64.438,92Z" fill="#FFFFFF"/>
</svg>
