<svg width="94" height="94" viewBox="0 0 94 94" fill="none" xmlns="http://www.w3.org/2000/svg" xmlns:xlink="http://www.w3.org/1999/xlink">
<path d="M89.38,3.58L4.54,3.58L4.54,88.42L89.38,88.42L89.38,3.58Z" fill="#FFFFFF"/>
<path d="M39.962,56.184L57.861,46L39.962,35.815L39.962,56.184Z" fill="#E60012"/>
<path d="M91.439,1.521C90.436,0.501 89.237,0 87.841,0L6.079,0C4.683,0 3.484,0.501 2.481,1.521C1.461,2.524 0.96,3.723 0.96,5.119L0.96,86.899C0.96,88.295 1.461,89.476 2.481,90.496C3.484,91.499 4.683,92.018 6.079,92.018L87.859,92.018C89.237,92.018 90.436,91.517 91.456,90.496C92.459,89.476 92.978,88.295 92.978,86.899L92.978,5.119C92.96,3.723 92.459,2.524 91.439,1.521ZM79.786,62.592C78.999,65.563 76.672,67.89 73.737,68.696C68.403,70.146 46.978,70.146 46.978,70.146C46.978,70.146 25.553,70.146 20.219,68.696C17.248,67.908 14.921,65.563 14.134,62.592C12.702,57.223 12.702,46 12.702,46C12.702,46 12.702,34.777 14.134,29.408C14.921,26.437 17.248,24.11 20.183,23.304C25.517,21.854 46.942,21.854 46.942,21.854C46.942,21.854 68.367,21.854 73.701,23.304C76.654,24.092 78.963,26.437 79.751,29.408C81.183,34.777 81.183,46 81.183,46C81.183,46 81.218,57.223 79.786,62.592Z" fill="#E60012"/>
</svg>
