<svg width="94" height="92" viewBox="0 0 94 92" fill="none" xmlns="http://www.w3.org/2000/svg" xmlns:xlink="http://www.w3.org/1999/xlink">
<path d="M89.366,3.594L4.554,3.594L4.554,88.406L89.366,88.406L89.366,3.594Z" fill="#FFFFFF"/>
<path d="M69.421,34.824C69.349,33.512 69.223,32.452 69.044,31.643C68.864,30.835 68.666,30.188 68.433,29.667C68.217,29.092 67.948,28.535 67.606,28.032C67.283,27.529 66.887,27.007 66.456,26.504C65.953,26.073 65.432,25.678 64.929,25.354C64.426,25.031 63.869,24.743 63.294,24.528C62.79,24.312 62.126,24.114 61.317,23.917C60.508,23.737 59.448,23.611 58.137,23.539C56.681,23.468 55.369,23.432 54.201,23.432C53.033,23.432 50.626,23.432 46.978,23.432C43.33,23.432 40.922,23.432 39.754,23.432C38.587,23.432 37.275,23.468 35.819,23.539C34.508,23.611 33.447,23.737 32.639,23.917C31.83,24.096 31.183,24.294 30.662,24.528C30.069,24.743 29.53,25.013 29.027,25.354C28.524,25.678 28.003,26.109 27.5,26.612C27.069,27.043 26.673,27.529 26.35,28.032C26.026,28.535 25.739,29.128 25.523,29.793C25.308,30.224 25.11,30.853 24.912,31.661C24.733,32.47 24.607,33.53 24.535,34.842C24.463,36.297 24.409,37.609 24.373,38.777C24.337,39.945 24.319,42.353 24.319,46C24.319,49.72 24.337,52.146 24.373,53.278C24.409,54.41 24.463,55.703 24.535,57.159C24.607,58.471 24.733,59.531 24.912,60.339C25.092,61.148 25.29,61.795 25.523,62.316C25.739,62.981 26.008,63.538 26.35,64.005C26.673,64.472 27.069,64.975 27.5,65.478C28.003,65.91 28.524,66.305 29.027,66.628C29.53,66.952 30.087,67.275 30.662,67.563C31.165,67.707 31.83,67.868 32.639,68.048C33.447,68.228 34.508,68.353 35.819,68.425C37.275,68.497 38.587,68.551 39.754,68.587C40.922,68.623 43.33,68.641 46.978,68.641C50.626,68.641 53.033,68.623 54.201,68.587C55.369,68.551 56.681,68.497 58.137,68.425C59.448,68.353 60.508,68.228 61.317,68.048C62.126,67.868 62.773,67.707 63.294,67.563C63.869,67.275 64.426,66.952 64.929,66.628C65.432,66.305 65.953,65.91 66.456,65.478C66.887,64.975 67.283,64.472 67.606,64.005C67.93,63.538 68.217,62.963 68.433,62.316C68.648,61.813 68.846,61.148 69.044,60.339C69.223,59.531 69.349,58.471 69.421,57.159C69.493,55.703 69.547,54.41 69.583,53.278C69.619,52.146 69.637,49.72 69.637,46C69.637,42.353 69.619,39.945 69.583,38.777C69.547,37.609 69.493,36.297 69.421,34.824ZM56.987,56.027C54.255,58.758 50.913,60.142 46.96,60.142C43.007,60.142 39.683,58.776 36.933,56.027C34.184,53.278 32.819,49.953 32.819,46C32.819,42.065 34.184,38.723 36.933,35.974C39.665,33.243 43.007,31.859 46.96,31.859C50.913,31.859 54.237,33.225 56.987,35.974C59.718,38.705 61.101,42.047 61.101,46C61.083,49.936 59.718,53.278 56.987,56.027ZM64.048,33.62C63.383,34.285 62.629,34.608 61.748,34.608C60.796,34.608 59.987,34.285 59.34,33.62C58.676,32.955 58.352,32.2 58.352,31.32C58.352,30.368 58.676,29.559 59.34,28.912C60.005,28.247 60.76,27.924 61.64,27.924C62.593,27.924 63.401,28.247 64.048,28.912C64.713,29.577 65.037,30.368 65.037,31.32C65.037,32.2 64.695,32.973 64.048,33.62Z" fill="#D83274"/>
<path d="M46.96,36.8C44.408,36.8 42.234,37.698 40.437,39.477C38.64,41.274 37.76,43.43 37.76,46C37.76,48.551 38.658,50.726 40.437,52.522C42.234,54.319 44.39,55.2 46.96,55.2C49.511,55.2 51.686,54.301 53.482,52.522C55.279,50.726 56.16,48.569 56.16,46C56.16,43.448 55.261,41.274 53.482,39.477C51.686,37.698 49.511,36.8 46.96,36.8Z" fill="#D83274"/>
<path d="M91.451,1.509C90.444,0.503 89.24,0 87.857,0L6.063,0C4.68,0 3.476,0.503 2.469,1.509C1.463,2.534 0.96,3.72 0.96,5.103L0.96,86.879C0.96,88.262 1.463,89.466 2.469,90.473C3.476,91.479 4.68,91.982 6.063,91.982L87.839,91.982C89.222,91.982 90.426,91.479 91.433,90.473C92.439,89.466 92.942,88.262 92.942,86.879L92.942,5.103C92.96,3.72 92.457,2.534 91.451,1.509ZM74.56,46C74.56,49.72 74.542,52.181 74.506,53.385C74.47,54.589 74.452,55.919 74.452,57.374C74.38,58.83 74.237,60.087 74.021,61.148C73.805,62.208 73.518,63.178 73.14,64.059C72.781,64.939 72.332,65.784 71.829,66.574C71.326,67.383 70.697,68.173 69.96,68.982C69.151,69.719 68.379,70.33 67.606,70.851C66.833,71.354 65.989,71.803 65.037,72.162C64.156,72.45 63.186,72.72 62.126,72.989C61.065,73.241 59.808,73.402 58.352,73.474C56.897,73.474 55.567,73.492 54.363,73.528C53.159,73.564 50.697,73.582 46.978,73.582C43.258,73.582 40.797,73.564 39.593,73.528C38.389,73.492 37.059,73.438 35.604,73.366C34.148,73.366 32.89,73.241 31.83,72.989C30.77,72.738 29.8,72.45 28.919,72.162C28.039,71.803 27.194,71.354 26.404,70.851C25.595,70.348 24.805,69.719 23.996,68.982C23.259,68.173 22.648,67.401 22.127,66.628C21.624,65.855 21.175,65.011 20.815,64.059C20.528,63.178 20.24,62.208 19.989,61.148C19.737,60.087 19.612,58.83 19.612,57.374C19.54,55.919 19.486,54.589 19.45,53.385C19.414,52.181 19.396,49.72 19.396,46C19.396,42.28 19.414,39.819 19.45,38.615C19.486,37.411 19.54,36.081 19.612,34.626C19.612,33.17 19.737,31.913 19.989,30.852C20.24,29.792 20.51,28.822 20.815,27.941C21.175,27.061 21.624,26.234 22.127,25.426C22.63,24.617 23.259,23.827 23.996,23.018C24.805,22.281 25.595,21.67 26.404,21.149C27.212,20.646 28.039,20.197 28.919,19.837C29.8,19.55 30.77,19.28 31.83,19.011C32.89,18.759 34.148,18.634 35.604,18.634C37.059,18.562 38.389,18.508 39.593,18.472C40.797,18.436 43.258,18.418 46.978,18.418C50.697,18.418 53.159,18.436 54.363,18.472C55.567,18.508 56.897,18.526 58.352,18.526C59.808,18.598 61.065,18.759 62.126,19.011C63.186,19.263 64.156,19.55 65.037,19.837C65.989,20.197 66.851,20.646 67.606,21.149C68.379,21.652 69.151,22.281 69.96,23.018C70.697,23.827 71.308,24.599 71.829,25.372C72.332,26.145 72.781,26.989 73.14,27.941C73.5,28.822 73.805,29.792 74.021,30.852C74.237,31.913 74.38,33.17 74.452,34.626C74.524,36.081 74.56,37.411 74.56,38.615C74.56,39.819 74.56,42.28 74.56,46Z" fill="#D83274"/>
</svg>
