<svg width="20" height="28" viewBox="0 0 20 28" fill="none" xmlns="http://www.w3.org/2000/svg" xmlns:xlink="http://www.w3.org/1999/xlink">
<path d="M7.965,0.82C6.315,-0.894 3.588,-0.946 1.874,0.705C0.161,2.355 0.109,5.082 1.759,6.796L7.965,0.82ZM13.764,13.052L16.891,16.015C18.475,14.343 18.464,11.722 16.867,10.064L13.764,13.052ZM1.735,19.484C0.099,21.211 0.173,23.938 1.899,25.574C3.626,27.21 6.353,27.137 7.989,25.41L1.735,19.484ZM1.759,6.796L10.661,16.04L16.867,10.064L7.965,0.82L1.759,6.796ZM10.637,10.089L1.735,19.484L7.989,25.41L16.891,16.015L10.637,10.089Z" fill="#BC00B7"/>
</svg>
