<svg width="18" height="28" viewBox="0 0 18 28" fill="none" xmlns="http://www.w3.org/2000/svg" xmlns:xlink="http://www.w3.org/1999/xlink">
<path d="M7.085,0.82C5.435,-0.894 2.708,-0.946 0.994,0.705C-0.719,2.355 -0.771,5.082 0.879,6.796L7.085,0.82ZM12.884,13.052L16.011,16.015C17.595,14.343 17.584,11.722 15.987,10.064L12.884,13.052ZM0.855,19.484C-0.781,21.211 -0.707,23.938 1.02,25.574C2.747,27.21 5.473,27.137 7.109,25.41L0.855,19.484ZM0.879,6.796L9.781,16.04L15.987,10.064L7.085,0.82L0.879,6.796ZM9.757,10.089L0.855,19.484L7.109,25.41L16.011,16.015L9.757,10.089Z" fill="#BC00B7"/>
</svg>
