<svg width="20" height="28" viewBox="0 0 20 28" fill="none" xmlns="http://www.w3.org/2000/svg" xmlns:xlink="http://www.w3.org/1999/xlink">
<path d="M8.085,1.32C6.435,-0.394 3.708,-0.445 1.994,1.205C0.281,2.855 0.229,5.582 1.879,7.296L8.085,1.32ZM13.884,13.552L17.011,16.515C18.595,14.844 18.584,12.222 16.987,10.564L13.884,13.552ZM1.855,19.984C0.219,21.711 0.293,24.438 2.02,26.074C3.747,27.71 6.473,27.637 8.109,25.91L1.855,19.984ZM1.879,7.296L10.781,16.54L16.987,10.564L8.085,1.32L1.879,7.296ZM10.757,10.589L1.855,19.984L8.109,25.91L17.011,16.515L10.757,10.589Z" fill="#BC00B7"/>
</svg>
