<svg width="20" height="28" viewBox="0 0 20 28" fill="none" xmlns="http://www.w3.org/2000/svg" xmlns:xlink="http://www.w3.org/1999/xlink">
<path d="M8.366,1.32C6.715,-0.394 3.988,-0.446 2.275,1.205C0.561,2.855 0.51,5.582 2.16,7.296L8.366,1.32ZM14.165,13.552L17.292,16.515C18.875,14.843 18.864,12.222 17.267,10.564L14.165,13.552ZM2.136,19.984C0.499,21.711 0.573,24.438 2.3,26.074C4.027,27.71 6.753,27.637 8.39,25.91L2.136,19.984ZM2.16,7.296L11.062,16.54L17.267,10.564L8.366,1.32L2.16,7.296ZM11.038,10.589L2.136,19.984L8.39,25.91L17.292,16.515L11.038,10.589Z" fill="#BC00B7"/>
</svg>
