<svg width="20" height="28" viewBox="0 0 20 28" fill="none" xmlns="http://www.w3.org/2000/svg" xmlns:xlink="http://www.w3.org/1999/xlink">
<path d="M8.246,1.32C6.595,-0.394 3.868,-0.446 2.155,1.205C0.441,2.855 0.389,5.582 2.04,7.296L8.246,1.32ZM14.044,13.552L17.171,16.515C18.755,14.843 18.744,12.222 17.147,10.564L14.044,13.552ZM2.016,19.984C0.379,21.711 0.453,24.438 2.18,26.074C3.907,27.71 6.633,27.637 8.27,25.91L2.016,19.984ZM2.04,7.296L10.941,16.54L17.147,10.564L8.246,1.32L2.04,7.296ZM10.917,10.589L2.016,19.984L8.27,25.91L17.171,16.515L10.917,10.589Z" fill="#BC00B7"/>
</svg>
