<svg width="348" height="30" viewBox="0 0 348 30" fill="none" xmlns="http://www.w3.org/2000/svg" xmlns:xlink="http://www.w3.org/1999/xlink">
<path d="M237.676,0L225.142,2.099L219.402,11.787L235.088,19.025L232.666,22.412L223.402,16.887L219,23.891L228.742,30L243.216,28.637L249,17.977L232.95,10.427L234.928,7.277L243.256,12.221L247.382,4.707L237.676,0ZM33.959,7.83L43.336,8L45,1.346L33,0L33.959,7.83ZM19.821,0.977L21.076,15.037L11.117,1.055L1,4.335L5.234,30L14.605,29.215L13.353,17.656L22.842,29.14L30.922,26.482L31,0L19.821,0.977ZM167.341,10.065L158.714,8.357L153,18.422L159.827,29.881L169.797,27.213L170.219,30L179,28.447L176.24,0.992L165.81,0L167.341,10.065ZM161,16.089L168.26,16L169,21.275L164.063,24L161,16.089ZM257.874,9.219L251.252,8.317L251,16.51L257.206,16.628L255.528,29.101L265.502,30L266.046,17.138L272.08,18.119L273,10.04L266.554,10.004L267.972,3.569L257.622,2L257.874,9.219ZM79.872,9.219L73.252,8.317L73,16.51L79.201,16.628L77.521,29.101L87.495,30L88.044,17.138L94.074,18.119L95,10.04L88.544,10.004L89.969,3.569L79.621,2L79.872,9.219ZM322.944,10.264L321,23.394L331.244,30L344.69,28.129L341.452,21.482L334.568,24.628L330.032,20.686L345.098,20.447L347,12.251L334.166,6L322.944,10.264ZM331,16.435L333.796,12L339,14.613L338.696,18L331,16.435ZM96.945,10.264L95,23.394L105.243,30L118.691,28.129L115.45,21.482L108.569,24.628L104.031,20.686L119.096,20.447L121,12.251L108.164,6L96.945,10.264ZM105,16.435L107.799,12L113,14.613L112.699,18L105,16.435ZM309.398,14.36L309.098,9.11L299,11.216L302.392,30L310.488,28.668L309.888,20.865L313.428,17.021L317.046,20.202L321,11.696L314.784,8L309.398,14.36ZM275,14.468L275.468,24.71L284.482,30L296.06,27.521L299,17.65L293.116,10.735L284.138,8L275,14.468ZM283,20.845L283.208,14L291,16.387L288.678,22L283,20.845ZM183,14.468L183.465,24.71L192.483,30L204.056,27.521L207,17.65L201.116,10.735L192.134,8L183,14.468ZM191,20.845L191.211,14L199,16.387L196.681,22L191,20.845ZM133.84,13.137L133.338,8.521L123,10.418L127.088,30L135.419,27.694L134.38,17.901L138.89,16.449L139.588,28.361L148.189,27.579L149,12.392L140.978,8L133.84,13.137ZM57.84,13.137L57.338,8.521L47,10.418L51.085,30L59.419,27.694L58.38,17.901L62.893,16.449L63.588,28.361L72.189,27.579L73,12.392L64.978,8L57.84,13.137ZM35,30L43.063,29.081L45,11.044L35,10L35,30Z" clip-rule="evenodd" fill-rule="evenodd" fill="#FFFFFF"/>
</svg>
