<svg width="16" height="22" viewBox="0 0 16 22" fill="none" xmlns="http://www.w3.org/2000/svg" xmlns:xlink="http://www.w3.org/1999/xlink">
<path d="M6.139,0.375C4.82,-0.994 2.641,-1.035 1.271,0.284C-0.098,1.602 -0.139,3.781 1.18,5.151L6.139,0.375ZM10.774,10.152L13.273,12.52C14.538,11.184 14.53,9.09 13.254,7.764L10.774,10.152ZM1.16,15.294C-0.147,16.674 -0.088,18.853 1.292,20.16C2.672,21.468 4.85,21.409 6.158,20.029L1.16,15.294ZM1.18,5.151L8.295,12.54L13.254,7.764L6.139,0.375L1.18,5.151ZM8.276,7.784L1.16,15.294L6.158,20.029L13.273,12.52L8.276,7.784Z" fill="#FFFFFF"/>
</svg>
